<svg width="512" height="512" viewBox="0 0 512 512" xmlns="http://www.w3.org/2000/svg">

    <!-- Face (soft heart-shaped, feminine) -->
    <path d="M 256 385
          C 228 385, 195 375, 178 355
          C 163 335, 153 310, 155 280
          C 148 253, 152 225, 158 200
          C 160 175, 180 160, 208 155
          C 220 152, 240 153, 248 155
          C 252 153, 268 152, 282 155
          C 310 155, 332 170, 352 200
          C 358 225, 362 253, 357 280
          C 359 310, 349 335, 334 355
          C 317 375, 284 385, 256 385 Z" fill="#ffd4a3" stroke="#1A1A1A" stroke-width="10" />

    <!-- Hair - Braided crown / halo braid -->
    <path d="M 256 147
          C 205 147, 165 167, 148 205
          L 148 247
          C 148 234, 152 222, 165 212
          C 180 202, 200 197, 220 199
          C 235 194, 245 192, 256 192
          C 267 192, 277 194, 292 199
          C 312 197, 332 202, 347 212
          C 360 222, 364 234, 364 247
          L 364 205
          C 347 167, 307 147, 256 147 Z" fill="#1A1A1A" />

    <!-- Braid crown -->
    <path d="M 165 212 Q 180 187, 210 180 Q 230 177, 256 177 Q 282 177, 302 180 Q 332 187, 347 212" 
          fill="none" stroke="#1A1A1A" stroke-width="24" stroke-linecap="round" />
    
    <!-- Braid texture -->
    <path d="M 180 200 L 175 207" fill="none" stroke="#2C2C2C" stroke-width="3" />
    <path d="M 200 190 L 195 197" fill="none" stroke="#2C2C2C" stroke-width="3" />
    <path d="M 220 185 L 215 192" fill="none" stroke="#2C2C2C" stroke-width="3" />
    <path d="M 240 182 L 235 189" fill="none" stroke="#2C2C2C" stroke-width="3" />
    <path d="M 272 182 L 277 189" fill="none" stroke="#2C2C2C" stroke-width="3" />
    <path d="M 292 185 L 297 192" fill="none" stroke="#2C2C2C" stroke-width="3" />
    <path d="M 312 190 L 317 197" fill="none" stroke="#2C2C2C" stroke-width="3" />
    <path d="M 332 200 L 337 207" fill="none" stroke="#2C2C2C" stroke-width="3" />

    <!-- Hair strands/wisps (straight) -->
    <path d="M 162 217 L 158 295" fill="none" stroke="#1A1A1A" stroke-width="32" stroke-linecap="round" />
    <path d="M 349 217 L 354 295" fill="none" stroke="#1A1A1A" stroke-width="32" stroke-linecap="round" />

    <!-- Left eye (expressive) -->
    <circle cx="215" cy="265" r="12" fill="#1A1A1A" />
    <circle cx="219" cy="262" r="4" fill="#FFFFFF" opacity="0.9" />

    <!-- Right eye (expressive) -->
    <circle cx="297" cy="265" r="12" fill="#1A1A1A" />
    <circle cx="301" cy="262" r="4" fill="#FFFFFF" opacity="0.9" />

    <!-- Eyelashes (long) -->
    <path d="M 206 261 Q 200 257, 203 253" fill="none" stroke="#1A1A1A" stroke-width="2.5" />
    <path d="M 224 261 Q 230 257, 227 253" fill="none" stroke="#1A1A1A" stroke-width="2.5" />
    <path d="M 288 261 Q 282 257, 285 253" fill="none" stroke="#1A1A1A" stroke-width="2.5" />
    <path d="M 306 261 Q 312 257, 309 253" fill="none" stroke="#1A1A1A" stroke-width="2.5" />

    <!-- Eyebrows (arched, feminine) -->
    <path d="M 198 248 Q 215 242, 232 248" fill="none" stroke="#1A1A1A" stroke-width="3" stroke-linecap="round" />
    <path d="M 280 248 Q 297 242, 314 248" fill="none" stroke="#1A1A1A" stroke-width="3" stroke-linecap="round" />

    <!-- Rosy cheeks -->
    <ellipse cx="190" cy="285" rx="16" ry="10" fill="#FFB6C1" opacity="0.4" />
    <ellipse cx="322" cy="285" rx="16" ry="10" fill="#FFB6C1" opacity="0.4" />

    <!-- Nose (petite) -->
    <circle cx="256" cy="300" r="4.5" fill="#1A1A1A" />

    <!-- Mouth (gentle smile) -->
    <path d="M 225 335 Q 256 347, 287 335" fill="none" stroke="#1A1A1A" stroke-width="5" stroke-linecap="round" />
</svg>
