<svg width="512" height="512" viewBox="0 0 512 512" xmlns="http://www.w3.org/2000/svg">

    <!-- Face (delicate oval) -->
    <ellipse cx="256" cy="290" rx="105" ry="110" fill="#ffd4a3" stroke="#1A1A1A" stroke-width="10" />

    <!-- Hair - Bob cut with bangs -->
    <path d="M 256 148
           C 202 148, 162 168, 148 210
           L 148 250
           C 148 240, 152 230, 165 222
           C 178 214, 195 210, 215 212
           C 230 208, 243 207, 256 207
           C 269 207, 282 208, 297 212
           C 317 210, 334 214, 347 222
           C 360 230, 364 240, 364 250
           L 364 210
           C 350 168, 310 148, 256 148 Z" fill="#1A1A1A" />

    <!-- Bob sides -->
    <ellipse cx="165" cy="245" rx="20" ry="45" fill="#1A1A1A" />
    <ellipse cx="347" cy="245" rx="20" ry="45" fill="#1A1A1A" />

    <!-- Straight bangs -->
    <path d="M 185 215 L 185 230" fill="none" stroke="#1A1A1A" stroke-width="10" stroke-linecap="round" />
    <path d="M 205 212 L 205 230" fill="none" stroke="#1A1A1A" stroke-width="10" stroke-linecap="round" />
    <path d="M 225 210 L 225 230" fill="none" stroke="#1A1A1A" stroke-width="10" stroke-linecap="round" />
    <path d="M 245 208 L 245 230" fill="none" stroke="#1A1A1A" stroke-width="10" stroke-linecap="round" />
    <path d="M 267 208 L 267 230" fill="none" stroke="#1A1A1A" stroke-width="10" stroke-linecap="round" />
    <path d="M 287 210 L 287 230" fill="none" stroke="#1A1A1A" stroke-width="10" stroke-linecap="round" />
    <path d="M 307 212 L 307 230" fill="none" stroke="#1A1A1A" stroke-width="10" stroke-linecap="round" />
    <path d="M 327 215 L 327 230" fill="none" stroke="#1A1A1A" stroke-width="10" stroke-linecap="round" />

    <!-- Left eye (soft, feminine) -->
    <circle cx="220" cy="280" r="11" fill="#1A1A1A" />
    <circle cx="223" cy="277" r="3.5" fill="#FFFFFF" opacity="0.9" />

    <!-- Right eye (soft, feminine) -->
    <circle cx="292" cy="280" r="11" fill="#1A1A1A" />
    <circle cx="295" cy="277" r="3.5" fill="#FFFFFF" opacity="0.9" />

    <!-- Eyelashes -->
    <path d="M 213 277 Q 208 273, 211 270" fill="none" stroke="#1A1A1A" stroke-width="2" />
    <path d="M 227 277 Q 232 273, 229 270" fill="none" stroke="#1A1A1A" stroke-width="2" />
    <path d="M 285 277 Q 280 273, 283 270" fill="none" stroke="#1A1A1A" stroke-width="2" />
    <path d="M 299 277 Q 304 273, 301 270" fill="none" stroke="#1A1A1A" stroke-width="2" />

    <!-- Nose (small) -->
    <circle cx="256" cy="310" r="5" fill="#1A1A1A" />

    <!-- Mouth (gentle smile) -->
    <path d="M 230 345 Q 256 356, 282 345" fill="none" stroke="#1A1A1A" stroke-width="5"
        stroke-linecap="round" />
</svg>
