<svg width="512" height="512" viewBox="0 0 512 512" xmlns="http://www.w3.org/2000/svg">

    <!-- Face (soft oval, feminine) -->
    <ellipse cx="256" cy="295" rx="108" ry="115" fill="#ffd4a3" stroke="#1A1A1A" stroke-width="10" />

    <!-- Hair - Long flowing with center part -->
    <path d="M 256 150
           C 203 150, 163 168, 150 215
           L 150 270
           C 150 260, 153 250, 163 242
           C 173 234, 188 230, 205 232
           Q 230 220, 256 215
           Q 282 220, 307 232
           C 324 230, 339 234, 349 242
           C 359 250, 362 260, 362 270
           L 362 215
           C 349 168, 309 150, 256 150 Z" fill="#1A1A1A" />

    <!-- Long flowing sides -->
    <ellipse cx="160" cy="280" rx="22" ry="80" fill="#1A1A1A" />
    <ellipse cx="352" cy="280" rx="22" ry="80" fill="#1A1A1A" />

    <!-- Hair waves -->
    <path d="M 152 260 Q 158 270, 152 280" fill="none" stroke="#1A1A1A" stroke-width="4" />
    <path d="M 152 290 Q 158 300, 152 310" fill="none" stroke="#1A1A1A" stroke-width="4" />
    <path d="M 360 260 Q 354 270, 360 280" fill="none" stroke="#1A1A1A" stroke-width="4" />
    <path d="M 360 290 Q 354 300, 360 310" fill="none" stroke="#1A1A1A" stroke-width="4" />

    <!-- Center part -->
    <path d="M 256 215 L 256 235" fill="none" stroke="#1A1A1A" stroke-width="2" />

    <!-- Left eye (large, expressive) -->
    <circle cx="218" cy="285" r="13" fill="#1A1A1A" />
    <circle cx="222" cy="282" r="4.5" fill="#FFFFFF" opacity="0.95" />
    <circle cx="219" cy="288" r="2" fill="#FFFFFF" opacity="0.7" />

    <!-- Right eye (large, expressive) -->
    <circle cx="294" cy="285" r="13" fill="#1A1A1A" />
    <circle cx="298" cy="282" r="4.5" fill="#FFFFFF" opacity="0.95" />
    <circle cx="295" cy="288" r="2" fill="#FFFFFF" opacity="0.7" />

    <!-- Eyelashes (dramatic) -->
    <path d="M 208 281 Q 202 277, 205 273" fill="none" stroke="#1A1A1A" stroke-width="2.5" />
    <path d="M 228 281 Q 234 277, 231 273" fill="none" stroke="#1A1A1A" stroke-width="2.5" />
    <path d="M 284 281 Q 278 277, 281 273" fill="none" stroke="#1A1A1A" stroke-width="2.5" />
    <path d="M 304 281 Q 310 277, 307 273" fill="none" stroke="#1A1A1A" stroke-width="2.5" />

    <!-- Rosy cheeks -->
    <ellipse cx="196" cy="305" rx="17" ry="11" fill="#FFB6C1" opacity="0.4" />
    <ellipse cx="316" cy="305" rx="17" ry="11" fill="#FFB6C1" opacity="0.4" />

    <!-- Nose (petite) -->
    <circle cx="256" cy="315" r="5" fill="#1A1A1A" />

    <!-- Mouth (soft smile) -->
    <path d="M 228 350 Q 256 362, 284 350" fill="none" stroke="#1A1A1A" stroke-width="5"
        stroke-linecap="round" />
</svg>
