<svg width="512" height="512" viewBox="0 0 512 512" xmlns="http://www.w3.org/2000/svg">

    <!-- Face (rectangular, masculine) -->
    <path d="M 256 408
           C 182 408, 145 368, 145 338
           L 145 232
           C 145 192, 190 157, 256 157
           C 322 157, 367 192, 367 232
           L 367 338
           C 367 368, 330 408, 256 408 Z" fill="#ffd4a3" stroke="#1A1A1A" stroke-width="12" />

    <!-- Hair - Curly afro/short curls -->
    <circle cx="180" cy="190" r="22" fill="#1A1A1A" />
    <circle cx="210" cy="175" r="24" fill="#1A1A1A" />
    <circle cx="240" cy="168" r="25" fill="#1A1A1A" />
    <circle cx="256" cy="165" r="26" fill="#1A1A1A" />
    <circle cx="272" cy="168" r="25" fill="#1A1A1A" />
    <circle cx="302" cy="175" r="24" fill="#1A1A1A" />
    <circle cx="332" cy="190" r="22" fill="#1A1A1A" />

    <!-- Additional curl layer -->
    <circle cx="195" cy="178" r="20" fill="#1A1A1A" />
    <circle cx="225" cy="170" r="22" fill="#1A1A1A" />
    <circle cx="287" cy="170" r="22" fill="#1A1A1A" />
    <circle cx="317" cy="178" r="20" fill="#1A1A1A" />

    <!-- Hair base -->
    <ellipse cx="256" cy="195" rx="110" ry="45" fill="#1A1A1A" />

    <!-- Left eye (warm) -->
    <circle cx="212" cy="275" r="13" fill="#1A1A1A" />
    <circle cx="217" cy="272" r="4" fill="#FFFFFF" opacity="0.8" />

    <!-- Right eye (warm) -->
    <circle cx="299" cy="275" r="13" fill="#1A1A1A" />
    <circle cx="303" cy="272" r="4" fill="#FFFFFF" opacity="0.8" />

	<!-- Nose (delicate) -->
    <circle cx="256" cy="328" r="7" fill="#1A1A1A" />
	
    <!-- Nose (broad) -->
    <!--<path d="M 244 323 L 242 338 L 270 338 L 268 323" fill="none" stroke="#1A1A1A" stroke-width="5"
        stroke-linecap="round" />-->

    <!-- Mustache -->
    <path d="M 215 350 Q 243 340, 262 339 Q 265 340, 297 350" fill="#1A1A1A" />

    <!-- Mouth (wide smile) -->
    <path d="M 220 360 Q 250 375, 295 360" fill="none" stroke="#1A1A1A" stroke-width="3"
        stroke-linecap="round" />
</svg>
