<svg width="512" height="512" viewBox="0 0 512 512" xmlns="http://www.w3.org/2000/svg">

    <!-- Face (East Asian features, light skin) -->
    <circle cx="256" cy="295" r="110" fill="#ffd4a3" stroke="#1A1A1A" stroke-width="10" />

    <!-- Hair - Short with blue streak (moved 20% lower total) -->
    <path d="M 256 168
          C 200 168, 160 188, 145 228
          L 145 258
          C 145 243, 150 228, 165 218
          C 180 208, 200 203, 220 206
          C 235 198, 245 196, 256 196
          C 267 196, 277 198, 292 206
          C 312 203, 332 208, 347 218
          C 362 228, 367 243, 367 258
          L 367 228
          C 352 188, 312 168, 256 168 Z" fill="#1A1A1A" />

    <!-- Left eye (almond-shaped, Asian, 5% taller) -->
    <path d="M 200 285 Q 225 275, 240 285 Q 225 292, 200 285 Z" fill="#1A1A1A" />
    <circle cx="220" cy="285" r="3" fill="#1A1A1A" opacity="0.7" />

    <!-- Right eye (almond-shaped, Asian, 5% taller) -->
    <path d="M 272 285 Q 292 275, 312 285 Q 292 292, 272 285 Z" fill="#1A1A1A" />
    <circle cx="292" cy="285" r="3" fill="#1A1A1A" opacity="0.7" />

    <!-- Eyebrows (straight, defined) -->
    <path d="M 195 270 L 243 270" fill="none" stroke="#1A1A1A" stroke-width="3" stroke-linecap="round" />
    <path d="M 269 270 L 317 270" fill="none" stroke="#1A1A1A" stroke-width="3" stroke-linecap="round" />

    <!-- Nose (small, button) -->
    <circle cx="256" cy="315" r="5" fill="#1A1A1A" />

    <!-- Mouth (cat-like smile) -->
    <path d="M 225 350 Q 235 360, 245 350 M 267 350 Q 277 360, 287 350" fill="none" stroke="#1A1A1A"
        stroke-width="5" stroke-linecap="round" />
    <path d="M 245 350 L 267 350" fill="none" stroke="#1A1A1A" stroke-width="5" />

    <!-- Freckles -->
    <circle cx="235" cy="310" r="2" fill="#d4a574" />
    <circle cx="248" cy="315" r="2" fill="#d4a574" />
    <circle cx="264" cy="315" r="2" fill="#d4a574" />
    <circle cx="277" cy="310" r="2" fill="#d4a574" />
</svg>
