<svg width="512" height="512" viewBox="0 0 512 512" xmlns="http://www.w3.org/2000/svg">

    <!-- Face (slightly wider oval) -->
    <ellipse cx="250" cy="254" rx="115" ry="120" fill="#ffd4a3" stroke="#1A1A1A" stroke-width="12" />

	<!-- Spiky hair additions -->
	<path d="M 195 154 L 200 99 L 175 154 Z" fill="#1A1A1A" />
    <path d="M 210 144 L 218 89 L 195 149 Z" fill="#1A1A1A" />
    <path d="M 225 134 L 234 101 L 242 139 Z" fill="#1A1A1A" />
    <path d="M 265 131 L 273 94 L 275 134 Z" fill="#1A1A1A" />
    <path d="M 283 137 L 295 94 L 293 137 Z" fill="#1A1A1A" />
    <path d="M 305 139 L 323 99 L 315 154 Z" fill="#1A1A1A" />
	
    <!-- Hair - Short spiky style -->
    <path d="M 261 149
          C 210 144, 165 164, 145 209
          C 220 144, 230 129, 256 139
          C 352 184, 360 184, 367 234
          L 362 214
          C 337 169, 307 139, 246 154 Z" fill="#1A1A1A" />

    <!-- Left eye (almond shaped) -->
    <ellipse cx="205" cy="229" rx="14" ry="12" fill="#1A1A1A" />

    <!-- Right eye (almond shaped) -->
    <ellipse cx="297" cy="229" rx="14" ry="12" fill="#1A1A1A" />

    <!-- Nose (triangular) -->
    <path d="M 251 271 L 240 291 L 265 291 Z" fill="#1A1A1A" />

    <!-- Mouth (closed smile) -->
    <path d="M 210 319 Q 256 334, 297 319" fill="none" stroke="#1A1A1A" stroke-width="7"
        stroke-linecap="round" />
</svg>
