<svg width="512" height="512" viewBox="0 0 512 512" xmlns="http://www.w3.org/2000/svg">

    <!-- Face (soft round) -->
    <circle cx="256" cy="292" r="110" fill="#ffd4a3" stroke="#1A1A1A" stroke-width="10" />

    <!-- Hair - Wavy shoulder-length with headband -->
    <path d="M 256 160
           C 202 160, 162 180, 147 222
           L 147 245
           C 147 230, 152 215, 167 205
           C 182 195, 202 190, 222 192
           C 237 185, 246 183, 256 183
           C 266 183, 275 185, 290 192
           C 310 190, 330 195, 345 205
           C 360 215, 365 230, 365 245
           L 365 222
           C 350 180, 310 160, 256 160 Z" fill="#1A1A1A" />

    <!-- Headband -->
    <ellipse cx="256" cy="205" rx="110" ry="8" fill="#9370DB" stroke="#1A1A1A" stroke-width="2" />
    <circle cx="256" cy="205" r="8" fill="#FFD700" stroke="#1A1A1A" stroke-width="2" />

    <!-- Wavy sides -->
    <path d="M 150 245 Q 145 265, 148 285 Q 150 305, 155 325 Q 158 345, 165 365" fill="none" stroke="#1A1A1A" stroke-width="32" stroke-linecap="round" />
    <path d="M 155 260 Q 152 270, 154 285 Q 156 300, 160 315" fill="none" stroke="#1A1A1A"
        stroke-width="8" stroke-linecap="round" />

    <path d="M 362 245 Q 367 265, 364 285 Q 362 305, 357 325 Q 354 345, 347 365" fill="none" stroke="#1A1A1A" stroke-width="32" stroke-linecap="round" />
    <path d="M 357 260 Q 360 270, 358 285 Q 356 300, 352 315" fill="none" stroke="#1A1A1A"
        stroke-width="8" stroke-linecap="round" />

    <!-- Left eye (soft and friendly) -->
    <circle cx="224" cy="280" r="10" fill="#1A1A1A" />
    <circle cx="227" cy="277" r="3" fill="#FFFFFF" opacity="0.9" />

    <!-- Right eye (soft and friendly) -->
    <circle cx="288" cy="280" r="10" fill="#1A1A1A" />
    <circle cx="291" cy="277" r="3" fill="#FFFFFF" opacity="0.9" />

    <!-- Eyelashes -->
    <path d="M 217 276 Q 212 273, 215 272" fill="none" stroke="#1A1A1A" stroke-width="2" />
    <path d="M 231 276 Q 236 273, 233 272" fill="none" stroke="#1A1A1A" stroke-width="2" />
    <path d="M 281 276 Q 276 273, 279 272" fill="none" stroke="#1A1A1A" stroke-width="2" />
    <path d="M 295 276 Q 300 273, 297 272" fill="none" stroke="#1A1A1A" stroke-width="2" />

    <!-- Nose (small) -->
    <circle cx="256" cy="312" r="5" fill="#1A1A1A" />

    <!-- Mouth (gentle smile) -->
    <path d="M 230 345 Q 256 357, 282 345" fill="none" stroke="#1A1A1A" stroke-width="5"
        stroke-linecap="round" />
</svg>
